<svg width="32" height="32" viewBox="0 0 194 71" fill="none" xmlns="http://www.w3.org/2000/svg">
    <path fill-rule="evenodd" clip-rule="evenodd" d="M2.54225 22.3577C3.64301 22.2661 4.60966 23.0841 4.70132 24.1849L6.8321 49.7737C13.6968 42.6497 22.9675 34.9646 33.2859 28.6192C45.2425 21.2664 58.7819 15.6041 71.7391 14.8421C77.1867 14.5217 83.9614 14.999 91.1141 16.1609C95.3528 11.2727 100.841 7.09739 107.652 4.2689C118.849 -0.380903 133.434 -1.31505 151.612 3.93713C152.818 4.28554 155.447 5.34399 158.723 6.77014C162.051 8.21916 166.175 10.1047 170.442 12.1672C178.908 16.2586 188.167 21.1536 192.798 24.7468C193.671 25.4239 193.83 26.6802 193.152 27.5529C192.475 28.4257 191.219 28.5843 190.346 27.9072C186.098 24.611 177.215 19.8832 168.701 15.7686C164.479 13.728 160.404 11.8646 157.126 10.4376C153.796 8.98775 151.412 8.04305 150.502 7.77993C133 2.72315 119.373 3.73275 109.186 7.96303C103.831 10.1869 99.3753 13.3218 95.7726 17.0045C105.292 18.9042 115.109 21.9355 123.094 25.8449C130.733 29.5848 137.153 34.3448 139.721 40.0929C141.043 43.0505 141.328 46.2403 140.265 49.5377C139.218 52.7859 136.912 55.9865 133.328 59.1386C131.762 60.5156 129.059 61.9284 125.991 63.2325C122.857 64.5646 119.127 65.872 115.336 66.9826C111.546 68.093 107.656 69.0181 104.204 69.5734C100.819 70.1179 97.6303 70.3461 95.3573 69.9103C87.3812 68.381 82.51 61.6788 80.7242 53.5373C78.9348 45.3798 80.1057 35.3976 84.4631 26.3171C85.5403 24.0723 86.8148 21.8774 88.2914 19.7746C82.239 18.9034 76.5764 18.5645 71.974 18.8352C59.9348 19.5432 47.0484 24.8517 35.3813 32.0265C25.2664 38.2467 16.2003 45.7882 9.56315 52.7045C10.9307 52.7438 12.5933 52.8259 14.5039 53.0066C20.6232 53.5853 29.2674 55.1726 39.0624 59.5851C40.0695 60.0388 40.5181 61.223 40.0645 62.2301C39.6108 63.2372 38.4266 63.6858 37.4195 63.2321C28.1076 59.0372 19.9088 57.5356 14.1273 56.9889C11.2362 56.7155 8.94481 56.6802 7.3946 56.6677C7.27909 56.6668 7.16526 56.666 7.05372 56.6652C6.45023 56.661 5.91386 56.6573 5.54166 56.6348L5.53646 56.6345C5.37122 56.6245 4.98398 56.6012 4.62116 56.477C4.61881 56.4762 4.61596 56.4752 4.61264 56.4741C4.49549 56.4348 3.78644 56.1966 3.40528 55.4234C3.21036 55.028 3.16548 54.6591 3.19822 54.3367L0.715118 24.5168C0.623457 23.416 1.44149 22.4494 2.54225 22.3577ZM92.7286 20.4966C90.8774 22.8826 89.3276 25.4256 88.0694 28.0477C84.0596 36.4036 83.0514 45.4779 84.6313 52.6803C86.2146 59.8988 90.2609 64.8603 96.1105 65.9818C97.6534 66.2777 100.254 66.1574 103.569 65.6241C106.817 65.1016 110.54 64.2195 114.211 63.144C117.881 62.0687 121.461 60.8116 124.426 59.5513C127.457 58.263 129.64 57.0554 130.687 56.1349C133.929 53.283 135.701 50.6565 136.458 48.3102C137.199 46.013 137.015 43.8408 136.069 41.7248C134.104 37.3257 128.8 33.0919 121.335 29.4374C113.018 25.3659 102.585 22.2823 92.7286 20.4966Z" fill="#181818"/>
    </svg>
    