<svg width="706" height="706" viewBox="0 0 706 706" fill="none" xmlns="http://www.w3.org/2000/svg">
    <g clip-path="url(#clip0_450_765)">
    <g opacity="0.4">
    <path d="M0 35.3H706" stroke="#DCBB7A" stroke-width="0.3"/>
    <path d="M0 105.9H706" stroke="#DCBB7A" stroke-width="0.3"/>
    <path d="M0 176.5H706" stroke="#DCBB7A" stroke-width="0.3"/>
    <path d="M0 247.1H706" stroke="#DCBB7A" stroke-width="0.3"/>
    <path d="M0 317.7H706" stroke="#DCBB7A" stroke-width="0.3"/>
    <path d="M0 388.3H706" stroke="#DCBB7A" stroke-width="0.3"/>
    <path d="M0 458.9H706" stroke="#DCBB7A" stroke-width="0.3"/>
    <path d="M0 529.5H706" stroke="#DCBB7A" stroke-width="0.3"/>
    <path d="M0 600.1H706" stroke="#DCBB7A" stroke-width="0.3"/>
    <path d="M0 670.7H706" stroke="#DCBB7A" stroke-width="0.3"/>
    </g>
    <g opacity="0.3">
    <path d="M70.6001 0V706" stroke="#C9B182" stroke-width="0.3"/>
    <path d="M211.8 0V706" stroke="#C9B182" stroke-width="0.3"/>
    <path d="M353 0V706" stroke="#C9B182" stroke-width="0.3"/>
    <path d="M494.2 0V706" stroke="#C9B182" stroke-width="0.3"/>
    <path d="M635.4 0V706" stroke="#C9B182" stroke-width="0.3"/>
    </g>
    <g opacity="0.3">
    <path d="M88.2498 55.774C89.8094 55.774 91.0738 54.5096 91.0738 52.95C91.0738 51.3903 89.8094 50.126 88.2498 50.126C86.6901 50.126 85.4258 51.3903 85.4258 52.95C85.4258 54.5096 86.6901 55.774 88.2498 55.774Z" fill="#A5977E"/>
    <path d="M423.6 150.731C424.965 150.731 426.071 149.625 426.071 148.26C426.071 146.895 424.965 145.789 423.6 145.789C422.235 145.789 421.129 146.895 421.129 148.26C421.129 149.625 422.235 150.731 423.6 150.731Z" fill="#A5977E"/>
    <path d="M236.51 295.108C237.68 295.108 238.628 294.16 238.628 292.99C238.628 291.82 237.68 290.872 236.51 290.872C235.34 290.872 234.392 291.82 234.392 292.99C234.392 294.16 235.34 295.108 236.51 295.108Z" fill="#A5977E"/>
    <path d="M547.15 338.174C548.71 338.174 549.974 336.91 549.974 335.35C549.974 333.79 548.71 332.526 547.15 332.526C545.59 332.526 544.326 333.79 544.326 335.35C544.326 336.91 545.59 338.174 547.15 338.174Z" fill="#A5977E"/>
    <path d="M130.61 450.781C131.975 450.781 133.081 449.675 133.081 448.31C133.081 446.945 131.975 445.839 130.61 445.839C129.245 445.839 128.139 446.945 128.139 448.31C128.139 449.675 129.245 450.781 130.61 450.781Z" fill="#A5977E"/>
    <path d="M324.76 538.678C325.93 538.678 326.878 537.73 326.878 536.56C326.878 535.39 325.93 534.442 324.76 534.442C323.59 534.442 322.642 535.39 322.642 536.56C322.642 537.73 323.59 538.678 324.76 538.678Z" fill="#A5977E"/>
    <path d="M628.34 613.514C629.9 613.514 631.164 612.25 631.164 610.69C631.164 609.13 629.9 607.866 628.34 607.866C626.78 607.866 625.516 609.13 625.516 610.69C625.516 612.25 626.78 613.514 628.34 613.514Z" fill="#A5977E"/>
    <path d="M158.85 666.111C160.215 666.111 161.321 665.005 161.321 663.64C161.321 662.275 160.215 661.169 158.85 661.169C157.485 661.169 156.379 662.275 156.379 663.64C156.379 665.005 157.485 666.111 158.85 666.111Z" fill="#A5977E"/>
    <path d="M487.14 80.4839C488.7 80.4839 489.964 79.2196 489.964 77.6599C489.964 76.1003 488.7 74.8359 487.14 74.8359C485.58 74.8359 484.316 76.1003 484.316 77.6599C484.316 79.2196 485.58 80.4839 487.14 80.4839Z" fill="#A5977E"/>
    <path d="M289.46 231.921C290.825 231.921 291.931 230.815 291.931 229.45C291.931 228.085 290.825 226.979 289.46 226.979C288.095 226.979 286.989 228.085 286.989 229.45C286.989 230.815 288.095 231.921 289.46 231.921Z" fill="#A5977E"/>
    <path d="M589.51 397.478C590.68 397.478 591.628 396.53 591.628 395.36C591.628 394.19 590.68 393.242 589.51 393.242C588.34 393.242 587.392 394.19 587.392 395.36C587.392 396.53 588.34 397.478 589.51 397.478Z" fill="#A5977E"/>
    <path d="M42.3599 514.674C43.9195 514.674 45.1839 513.41 45.1839 511.85C45.1839 510.29 43.9195 509.026 42.3599 509.026C40.8002 509.026 39.5359 510.29 39.5359 511.85C39.5359 513.41 40.8002 514.674 42.3599 514.674Z" fill="#A5977E"/>
    <path d="M360.06 630.811C361.425 630.811 362.531 629.705 362.531 628.34C362.531 626.975 361.425 625.869 360.06 625.869C358.695 625.869 357.589 626.975 357.589 628.34C357.589 629.705 358.695 630.811 360.06 630.811Z" fill="#A5977E"/>
    </g>
    <g opacity="0.15">
    <path d="M141.2 204.74C170.443 204.74 194.15 192.097 194.15 176.5C194.15 160.903 170.443 148.26 141.2 148.26C111.957 148.26 88.25 160.903 88.25 176.5C88.25 192.097 111.957 204.74 141.2 204.74Z" fill="#CFB27B"/>
    <path d="M529.5 501.26C568.491 501.26 600.1 482.295 600.1 458.9C600.1 435.505 568.491 416.54 529.5 416.54C490.509 416.54 458.9 435.505 458.9 458.9C458.9 482.295 490.509 501.26 529.5 501.26Z" fill="#CFB27B"/>
    <path d="M247.1 624.81C266.596 624.81 282.4 613.747 282.4 600.1C282.4 586.453 266.596 575.39 247.1 575.39C227.604 575.39 211.8 586.453 211.8 600.1C211.8 613.747 227.604 624.81 247.1 624.81Z" fill="#CFB27B"/>
    </g>
    </g>
    <defs>
    <clipPath id="clip0_450_765">
    <rect width="706" height="706" fill="white"/>
    </clipPath>
    </defs>
    </svg>
    