<svg width="27" height="23" viewBox="0 0 27 23" fill="none" xmlns="http://www.w3.org/2000/svg">
    <g filter="url(#filter0_i_440_293)">
    <path d="M19.8154 3.42422C14.3941 3.93843 11.4301 6.78601 11.4301 6.78601C11.4301 6.78601 7.49952 3.13261 5.99933 2.13253C4.49915 1.13245 3.13574 0.328785 1.72373 1.83033C0.499141 3.13253 0.999196 4.63253 1.96286 5.7748L8.90823 12.3505L8.2451 16.9224C10.7007 20.195 15.6394 25.4322 22.6426 20.2171C32.0413 12.2289 22.3154 3.42422 19.8154 3.42422Z" fill="#FFAA75"/>
    </g>
    <path d="M19.8154 3.42422C14.3941 3.93843 11.4301 6.78601 11.4301 6.78601C11.4301 6.78601 7.49952 3.13261 5.99933 2.13253C4.49915 1.13245 3.13574 0.328785 1.72373 1.83033C0.499141 3.13253 0.999196 4.63253 1.96286 5.7748L8.90823 12.3505L8.2451 16.9224C10.7007 20.195 15.6394 25.4322 22.6426 20.2171C32.0413 12.2289 22.3154 3.42422 19.8154 3.42422Z" stroke="#181818" stroke-width="0.5" stroke-linecap="round" stroke-linejoin="round"/>
    <defs>
    <filter id="filter0_i_440_293" x="0.75" y="0.75" width="26.1552" height="21.9242" filterUnits="userSpaceOnUse" color-interpolation-filters="sRGB">
    <feFlood flood-opacity="0" result="BackgroundImageFix"/>
    <feBlend mode="normal" in="SourceGraphic" in2="BackgroundImageFix" result="shape"/>
    <feColorMatrix in="SourceAlpha" type="matrix" values="0 0 0 0 0 0 0 0 0 0 0 0 0 0 0 0 0 0 127 0" result="hardAlpha"/>
    <feOffset dx="1" dy="-1"/>
    <feComposite in2="hardAlpha" operator="arithmetic" k2="-1" k3="1"/>
    <feColorMatrix type="matrix" values="0 0 0 0 0.941176 0 0 0 0 0.364706 0 0 0 0 0.374314 0 0 0 1 0"/>
    <feBlend mode="normal" in2="shape" result="effect1_innerShadow_440_293"/>
    </filter>
    </defs>
    </svg>
    