<svg width="140" height="140" viewBox="0 0 140 140" fill="none" xmlns="http://www.w3.org/2000/svg">
<path d="M116.667 49H101.111C96.4444 49 93.3333 51.8 93.3333 56C93.3333 60.2 96.4444 63 101.111 63H116.667C121.333 63 124.444 65.8 124.444 70V119C124.444 123.2 121.333 126 116.667 126H23.3333C18.6667 126 15.5556 123.2 15.5556 119V70C15.5556 65.8 18.6667 63 23.3333 63H38.8889C43.5556 63 46.6667 60.2 46.6667 56C46.6667 51.8 43.5556 49 38.8889 49H23.3333C10.1111 49 0 58.1 0 70V119C0 130.9 10.1111 140 23.3333 140H116.667C129.889 140 140 130.9 140 119V70C140 58.1 129.889 49 116.667 49ZM41.2222 88.9L64.5555 109.9C66.1111 111.3 67.6667 112 70 112C72.3333 112 73.8889 111.3 75.4444 109.9L98.7778 88.9C101.889 86.1 101.889 81.9 98.7778 79.1C95.6667 76.3 91 76.3 87.8889 79.1L77.7778 88.2V7C77.7778 2.8 74.6667 0 70 0C65.3333 0 62.2222 2.8 62.2222 7V88.2L52.1111 79.1C49 76.3 44.3333 76.3 41.2222 79.1C38.1111 81.9 38.1111 86.1 41.2222 88.9Z" fill="#181818"/>
</svg>
