<svg width="228" height="190" viewBox="0 0 228 190" fill="none" xmlns="http://www.w3.org/2000/svg">
<path d="M227.314 120.967L135.585 29.7623L0.867115 85.9658L92.6124 178.795L227.314 120.967Z" fill="#5A4B89"/>
<path d="M227.314 120.967L92.6124 178.795L92.7134 188.537L227.419 131.116L227.314 120.967Z" fill="#5A4B89"/>
<path d="M92.6124 178.795L0.867115 85.9658L0.966036 95.5055L92.7134 188.537L92.6124 178.795Z" fill="#5A4B89"/>
<path d="M227.209 110.819L135.891 17.1739L0.772403 76.8321L92.4861 166.617L227.209 110.819Z" fill="#6A894B"/>
<path d="M227.209 110.819L92.4861 166.617L92.6124 178.795L227.314 120.967L227.209 110.819Z" fill="#6A894B"/>
<path d="M92.4861 166.617L0.772403 76.8321L0.867115 85.9658L92.6124 178.795L92.4861 166.617Z" fill="#6A894B"/>
<path d="M227.103 100.671L135.329 5.00045L0.677696 67.6989L92.3598 154.439L227.103 100.671Z" fill="#FFAA75"/>
<path d="M227.103 100.671L92.3598 154.439L92.4861 166.617L227.209 110.819L227.103 100.671Z" fill="#FFAA75"/>
<path d="M92.3598 154.439L0.677696 67.6989L0.772403 76.8321L92.4861 166.617L92.3598 154.439Z" fill="#FFAA75"/>
<path d="M226.998 90.5225L135.287 0.941143L0.585092 58.7684L92.2504 143.885L226.998 90.5225Z" fill="#F05D7E"/>
<path d="M226.998 90.5225L92.2504 143.885L92.3598 154.439L227.103 100.671L226.998 90.5225Z" fill="#F05D7E"/>
<path d="M92.2504 143.885L0.585092 58.7684L0.681906 68.1048L92.3598 154.439L92.2504 143.885Z" fill="#F05D7E"/>
</svg>
