<svg width="944" height="944" viewBox="0 0 944 944" fill="none" xmlns="http://www.w3.org/2000/svg">
    <g opacity="0.5">
    <path d="M0 4.71997H316.24" stroke="#DBC8A0" stroke-width="0.3"/>
    <path d="M339.84 4.71997H670.24" stroke="#DBC8A0" stroke-width="0.3"/>
    <path d="M693.84 4.71997H944" stroke="#DBC8A0" stroke-width="0.3"/>
    <path d="M0 23.6H401.2" stroke="#DBC8A0" stroke-width="0.3"/>
    <path d="M434.24 23.6H769.36" stroke="#DBC8A0" stroke-width="0.3"/>
    <path d="M792.96 23.6H944" stroke="#DBC8A0" stroke-width="0.3"/>
    <path d="M0 42.48H198.24" stroke="#DBC8A0" stroke-width="0.3"/>
    <path d="M226.56 42.48H646.64" stroke="#DBC8A0" stroke-width="0.3"/>
    <path d="M674.96 42.48H944" stroke="#DBC8A0" stroke-width="0.3"/>
    <path d="M0 70.8H259.6" stroke="#DBC8A0" stroke-width="0.3"/>
    <path d="M287.92 70.8H863.76" stroke="#DBC8A0" stroke-width="0.3"/>
    <path d="M887.36 70.8H944" stroke="#DBC8A0" stroke-width="0.3"/>
    <path d="M0 94.4H528.64" stroke="#DBC8A0" stroke-width="0.3"/>
    <path d="M556.96 94.4H944" stroke="#DBC8A0" stroke-width="0.3"/>
    <path d="M0 118H372.88" stroke="#DBC8A0" stroke-width="0.3"/>
    <path d="M401.2 118H745.76" stroke="#DBC8A0" stroke-width="0.3"/>
    <path d="M774.08 118H944" stroke="#DBC8A0" stroke-width="0.3"/>
    <path d="M0 146.32H434.24" stroke="#DBC8A0" stroke-width="0.3"/>
    <path d="M462.56 146.32H944" stroke="#DBC8A0" stroke-width="0.3"/>
    <path d="M0 169.92H944" stroke="#DBC8A0" stroke-width="0.3"/>
    <path d="M0 193.52H354" stroke="#DBC8A0" stroke-width="0.3"/>
    <path d="M382.32 193.52H684.4" stroke="#DBC8A0" stroke-width="0.3"/>
    <path d="M712.72 193.52H944" stroke="#DBC8A0" stroke-width="0.3"/>
    <path d="M0 221.84H575.84" stroke="#DBC8A0" stroke-width="0.3"/>
    <path d="M608.88 221.84H944" stroke="#DBC8A0" stroke-width="0.3"/>
    <path d="M0 240.72H316.24" stroke="#DBC8A0" stroke-width="0.3"/>
    <path d="M344.56 240.72H887.36" stroke="#DBC8A0" stroke-width="0.3"/>
    <path d="M910.96 240.72H944" stroke="#DBC8A0" stroke-width="0.3"/>
    <path d="M0 264.32H944" stroke="#DBC8A0" stroke-width="0.3"/>
    <path d="M0 287.92H490.88" stroke="#DBC8A0" stroke-width="0.3"/>
    <path d="M519.2 287.92H944" stroke="#DBC8A0" stroke-width="0.3"/>
    <path d="M0 316.24H944" stroke="#DBC8A0" stroke-width="0.3"/>
    <path d="M0 339.84H405.92" stroke="#DBC8A0" stroke-width="0.3"/>
    <path d="M434.24 339.84H830.72" stroke="#DBC8A0" stroke-width="0.3"/>
    <path d="M859.04 339.84H944" stroke="#DBC8A0" stroke-width="0.3"/>
    <path d="M0 363.44H278.48" stroke="#DBC8A0" stroke-width="0.3"/>
    <path d="M306.8 363.44H944" stroke="#DBC8A0" stroke-width="0.3"/>
    <path d="M0 382.32H571.12" stroke="#DBC8A0" stroke-width="0.3"/>
    <path d="M604.16 382.32H944" stroke="#DBC8A0" stroke-width="0.3"/>
    <path d="M0 405.92H533.36" stroke="#DBC8A0" stroke-width="0.3"/>
    <path d="M561.68 405.92H944" stroke="#DBC8A0" stroke-width="0.3"/>
    <path d="M0 438.96H245.44" stroke="#DBC8A0" stroke-width="0.3"/>
    <path d="M273.76 438.96H722.16" stroke="#DBC8A0" stroke-width="0.3"/>
    <path d="M750.48 438.96H944" stroke="#DBC8A0" stroke-width="0.3"/>
    <path d="M0 457.84H401.2" stroke="#DBC8A0" stroke-width="0.3"/>
    <path d="M429.52 457.84H670.24" stroke="#DBC8A0" stroke-width="0.3"/>
    <path d="M698.56 457.84H944" stroke="#DBC8A0" stroke-width="0.3"/>
    <path d="M0 481.44H349.28" stroke="#DBC8A0" stroke-width="0.3"/>
    <path d="M377.6 481.44H826" stroke="#DBC8A0" stroke-width="0.3"/>
    <path d="M854.32 481.44H944" stroke="#DBC8A0" stroke-width="0.3"/>
    <path d="M0 505.04H453.12" stroke="#DBC8A0" stroke-width="0.3"/>
    <path d="M481.44 505.04H944" stroke="#DBC8A0" stroke-width="0.3"/>
    <path d="M0 528.64H297.36" stroke="#DBC8A0" stroke-width="0.3"/>
    <path d="M325.68 528.64H745.76" stroke="#DBC8A0" stroke-width="0.3"/>
    <path d="M774.08 528.64H944" stroke="#DBC8A0" stroke-width="0.3"/>
    <path d="M0 556.96H944" stroke="#DBC8A0" stroke-width="0.3"/>
    <path d="M0 575.84H424.8" stroke="#DBC8A0" stroke-width="0.3"/>
    <path d="M453.12 575.84H726.88" stroke="#DBC8A0" stroke-width="0.3"/>
    <path d="M755.2 575.84H944" stroke="#DBC8A0" stroke-width="0.3"/>
    <path d="M0 599.44H387.04" stroke="#DBC8A0" stroke-width="0.3"/>
    <path d="M415.36 599.44H944" stroke="#DBC8A0" stroke-width="0.3"/>
    <path d="M0 623.04H538.08" stroke="#DBC8A0" stroke-width="0.3"/>
    <path d="M566.4 623.04H816.56" stroke="#DBC8A0" stroke-width="0.3"/>
    <path d="M844.88 623.04H944" stroke="#DBC8A0" stroke-width="0.3"/>
    <path d="M0 651.36H335.12" stroke="#DBC8A0" stroke-width="0.3"/>
    <path d="M363.44 651.36H944" stroke="#DBC8A0" stroke-width="0.3"/>
    <path d="M0 670.24H457.84" stroke="#DBC8A0" stroke-width="0.3"/>
    <path d="M490.88 670.24H944" stroke="#DBC8A0" stroke-width="0.3"/>
    <path d="M0 693.84H944" stroke="#DBC8A0" stroke-width="0.3"/>
    <path d="M0 717.44H391.76" stroke="#DBC8A0" stroke-width="0.3"/>
    <path d="M420.08 717.44H778.8" stroke="#DBC8A0" stroke-width="0.3"/>
    <path d="M811.84 717.44H944" stroke="#DBC8A0" stroke-width="0.3"/>
    <path d="M0 741.04H500.32" stroke="#DBC8A0" stroke-width="0.3"/>
    <path d="M528.64 741.04H944" stroke="#DBC8A0" stroke-width="0.3"/>
    <path d="M0 764.64H438.96" stroke="#DBC8A0" stroke-width="0.3"/>
    <path d="M467.28 764.64H944" stroke="#DBC8A0" stroke-width="0.3"/>
    <path d="M0 788.24H292.64" stroke="#DBC8A0" stroke-width="0.3"/>
    <path d="M320.96 788.24H684.4" stroke="#DBC8A0" stroke-width="0.3"/>
    <path d="M712.72 788.24H944" stroke="#DBC8A0" stroke-width="0.3"/>
    <path d="M0 811.84H533.36" stroke="#DBC8A0" stroke-width="0.3"/>
    <path d="M561.68 811.84H944" stroke="#DBC8A0" stroke-width="0.3"/>
    <path d="M0 835.44H944" stroke="#DBC8A0" stroke-width="0.3"/>
    <path d="M0 859.04H330.4" stroke="#DBC8A0" stroke-width="0.3"/>
    <path d="M358.72 859.04H703.28" stroke="#DBC8A0" stroke-width="0.3"/>
    <path d="M731.6 859.04H944" stroke="#DBC8A0" stroke-width="0.3"/>
    <path d="M0 882.64H542.8" stroke="#DBC8A0" stroke-width="0.3"/>
    <path d="M580.56 882.64H944" stroke="#DBC8A0" stroke-width="0.3"/>
    <path d="M0 906.24H410.64" stroke="#DBC8A0" stroke-width="0.3"/>
    <path d="M438.96 906.24H736.32" stroke="#DBC8A0" stroke-width="0.3"/>
    <path d="M764.64 906.24H944" stroke="#DBC8A0" stroke-width="0.3"/>
    <path d="M0 929.84H944" stroke="#DBC8A0" stroke-width="0.3"/>
    </g>
    <g opacity="0.2">
    <path d="M0 55.46H944" stroke="#F0E9D5" stroke-width="0.1"/>
    <path d="M0 105.02H944" stroke="#F0E9D5" stroke-width="0.1"/>
    <path d="M0 157.412H944" stroke="#F0E9D5" stroke-width="0.1"/>
    <path d="M0 215.468H944" stroke="#F0E9D5" stroke-width="0.1"/>
    <path d="M0 273.052H944" stroke="#F0E9D5" stroke-width="0.1"/>
    <path d="M0 322.14H944" stroke="#F0E9D5" stroke-width="0.1"/>
    <path d="M0 375.004H944" stroke="#F0E9D5" stroke-width="0.1"/>
    <path d="M0 433.06H944" stroke="#F0E9D5" stroke-width="0.1"/>
    <path d="M0 487.812H944" stroke="#F0E9D5" stroke-width="0.1"/>
    <path d="M0 541.148H944" stroke="#F0E9D5" stroke-width="0.1"/>
    <path d="M0 598.732H944" stroke="#F0E9D5" stroke-width="0.1"/>
    <path d="M0 652.54H944" stroke="#F0E9D5" stroke-width="0.1"/>
    <path d="M0 705.404H944" stroke="#F0E9D5" stroke-width="0.1"/>
    <path d="M0 763.46H944" stroke="#F0E9D5" stroke-width="0.1"/>
    <path d="M0 818.212H944" stroke="#F0E9D5" stroke-width="0.1"/>
    <path d="M0 871.548H944" stroke="#F0E9D5" stroke-width="0.1"/>
    <path d="M0 924.412H944" stroke="#F0E9D5" stroke-width="0.1"/>
    </g>
    </svg>
    